<svg width="14" height="16" viewBox="0 0 14 16" fill="none" xmlns="http://www.w3.org/2000/svg">
<path d="M12.8333 6.83322H3.97834L7.82835 2.99489C8.04803 2.7752 8.17145 2.47724 8.17145 2.16656C8.17145 1.85587 8.04803 1.55791 7.82835 1.33822C7.60866 1.11854 7.3107 0.995117 7.00001 0.995117C6.68933 0.995117 6.39137 1.11854 6.17168 1.33822L0.338345 7.17156C0.232131 7.28251 0.148871 7.41335 0.0933446 7.55656C-0.0233431 7.8406 -0.0233431 8.15919 0.0933446 8.44322C0.148871 8.58643 0.232131 8.71727 0.338345 8.82822L6.17168 14.6616C6.28014 14.7709 6.40917 14.8577 6.55134 14.9169C6.69351 14.9762 6.846 15.0067 7.00001 15.0067C7.15403 15.0067 7.30652 14.9762 7.44869 14.9169C7.59085 14.8577 7.71989 14.7709 7.82835 14.6616C7.9377 14.5531 8.02449 14.4241 8.08372 14.2819C8.14295 14.1397 8.17344 13.9872 8.17344 13.8332C8.17344 13.6792 8.14295 13.5267 8.08372 13.3846C8.02449 13.2424 7.9377 13.1133 7.82835 13.0049L3.97834 9.16656H12.8333C13.1428 9.16656 13.4395 9.04364 13.6583 8.82485C13.8771 8.60606 14 8.30931 14 7.99989C14 7.69047 13.8771 7.39373 13.6583 7.17493C13.4395 6.95614 13.1428 6.83322 12.8333 6.83322Z" fill="white"/>
</svg>
