<svg width="22" height="22" viewBox="0 0 22 22" fill="none" xmlns="http://www.w3.org/2000/svg">
<path d="M11 0.166687C8.85736 0.166687 6.76285 0.802051 4.98132 1.99243C3.19978 3.18282 1.81125 4.87475 0.9913 6.85428C0.17135 8.83382 -0.0431857 11.012 0.374821 13.1135C0.792827 15.215 1.8246 17.1453 3.33967 18.6603C4.85474 20.1754 6.78506 21.2072 8.88652 21.6252C10.988 22.0432 13.1662 21.8287 15.1457 21.0087C17.1253 20.1888 18.8172 18.8002 20.0076 17.0187C21.198 15.2372 21.8333 13.1427 21.8333 11C21.8333 9.57737 21.5531 8.16864 21.0087 6.85428C20.4643 5.53992 19.6663 4.34567 18.6603 3.3397C17.6543 2.33373 16.4601 1.53575 15.1457 0.991325C13.8314 0.4469 12.4226 0.166687 11 0.166687V0.166687ZM12.0833 19.5909V18.5834C12.0833 18.296 11.9692 18.0205 11.766 17.8173C11.5629 17.6142 11.2873 17.5 11 17.5C10.7127 17.5 10.4371 17.6142 10.234 17.8173C10.0308 18.0205 9.91666 18.296 9.91666 18.5834V19.5909C8.00997 19.3491 6.23774 18.4803 4.87871 17.1213C3.51968 15.7623 2.65095 13.99 2.40916 12.0834H3.41666C3.70398 12.0834 3.97953 11.9692 4.18269 11.7661C4.38586 11.5629 4.49999 11.2873 4.49999 11C4.49999 10.7127 4.38586 10.4372 4.18269 10.234C3.97953 10.0308 3.70398 9.91669 3.41666 9.91669H2.40916C2.65095 8.01 3.51968 6.23777 4.87871 4.87874C6.23774 3.51971 8.00997 2.65098 9.91666 2.40919V3.41669C9.91666 3.70401 10.0308 3.97955 10.234 4.18272C10.4371 4.38588 10.7127 4.50002 11 4.50002C11.2873 4.50002 11.5629 4.38588 11.766 4.18272C11.9692 3.97955 12.0833 3.70401 12.0833 3.41669V2.40919C13.99 2.65098 15.7622 3.51971 17.1213 4.87874C18.4803 6.23777 19.349 8.01 19.5908 9.91669H18.5833C18.296 9.91669 18.0205 10.0308 17.8173 10.234C17.6141 10.4372 17.5 10.7127 17.5 11C17.5 11.2873 17.6141 11.5629 17.8173 11.7661C18.0205 11.9692 18.296 12.0834 18.5833 12.0834H19.5908C19.349 13.99 18.4803 15.7623 17.1213 17.1213C15.7622 18.4803 13.99 19.3491 12.0833 19.5909ZM14.4017 6.17919L8.98499 8.47585C8.73248 8.58526 8.53107 8.78667 8.42166 9.03919L6.12499 14.4559C6.03967 14.6545 6.01575 14.8742 6.05629 15.0865C6.09683 15.2989 6.19999 15.4943 6.35249 15.6475C6.55251 15.8516 6.82508 15.9685 7.11083 15.9725C7.26073 15.9727 7.40877 15.9394 7.54416 15.875L12.9608 13.5784C13.2133 13.4689 13.4148 13.2675 13.5242 13.015L15.8208 7.59835C15.9045 7.39984 15.9272 7.18087 15.8858 6.96944C15.8445 6.758 15.741 6.56369 15.5887 6.41135C15.4363 6.25901 15.242 6.15555 15.0306 6.11419C14.8191 6.07284 14.6002 6.09547 14.4017 6.17919V6.17919ZM11.7042 11.7042L9.23416 12.7875L10.3175 10.3175L12.7875 9.23419L11.7042 11.7042Z" fill="black"/>
</svg>
