<svg width="20" height="20" viewBox="0 0 20 20" fill="none" xmlns="http://www.w3.org/2000/svg">
<path d="M18.1667 8.83341H11.1667V1.83341C11.1667 1.524 11.0438 1.22725 10.825 1.00846C10.6062 0.789665 10.3095 0.666748 10.0001 0.666748C9.69066 0.666748 9.39392 0.789665 9.17512 1.00846C8.95633 1.22725 8.83341 1.524 8.83341 1.83341V8.83341H1.83341C1.524 8.83341 1.22725 8.95633 1.00846 9.17512C0.789665 9.39392 0.666748 9.69066 0.666748 10.0001C0.666748 10.3095 0.789665 10.6062 1.00846 10.825C1.22725 11.0438 1.524 11.1667 1.83341 11.1667H8.83341V18.1667C8.83341 18.4762 8.95633 18.7729 9.17512 18.9917C9.39392 19.2105 9.69066 19.3334 10.0001 19.3334C10.3095 19.3334 10.6062 19.2105 10.825 18.9917C11.0438 18.7729 11.1667 18.4762 11.1667 18.1667V11.1667H18.1667C18.4762 11.1667 18.7729 11.0438 18.9917 10.825C19.2105 10.6062 19.3334 10.3095 19.3334 10.0001C19.3334 9.69066 19.2105 9.39392 18.9917 9.17512C18.7729 8.95633 18.4762 8.83341 18.1667 8.83341Z" fill="#0055FB"/>
</svg>
