<svg width="20" height="25" viewBox="0 0 20 25" fill="none" xmlns="http://www.w3.org/2000/svg">
<path d="M6.17342 8.09405L6.17098 8.09603L6.16866 8.09829L6.17342 8.09405ZM16.957 7.89198C16.8817 7.81934 16.798 7.75578 16.7079 7.7026C16.5802 7.62748 16.4386 7.57934 16.2916 7.56116C16.1446 7.54298 15.9955 7.55513 15.8534 7.59688C15.7113 7.63862 15.5793 7.70907 15.4655 7.80387C15.3517 7.89866 15.2586 8.01579 15.1918 8.148C14.8187 8.88325 14.304 9.53758 13.6773 10.0735C13.7732 9.53352 13.8215 8.98623 13.8218 8.43787C13.8238 6.76964 13.3837 5.13068 12.5463 3.68785C11.7089 2.24501 10.5042 1.04985 9.05466 0.224035C8.89499 0.13352 8.71494 0.0850541 8.5314 0.083186C8.34786 0.081318 8.16686 0.126109 8.00537 0.213355C7.84389 0.300602 7.70722 0.427444 7.60818 0.58198C7.50915 0.736516 7.451 0.913679 7.43919 1.09684C7.37856 2.12403 7.11003 3.12822 6.64986 4.04857C6.18969 4.96891 5.54746 5.78625 4.76209 6.45107L4.51241 6.65419C3.69115 7.20679 2.96421 7.888 2.3595 8.67168C1.41951 9.85588 0.768351 11.2428 0.457663 12.7225C0.146976 14.2021 0.185306 15.7338 0.569614 17.1961C0.953921 18.6583 1.67364 20.011 2.67168 21.1467C3.66973 22.2824 4.91866 23.1699 6.31942 23.7389C6.48389 23.8061 6.66237 23.8318 6.83912 23.8137C7.01587 23.7957 7.18545 23.7344 7.33291 23.6353C7.48037 23.5362 7.60118 23.4023 7.68467 23.2455C7.76816 23.0886 7.81178 22.9137 7.81167 22.736C7.81089 22.6211 7.7927 22.5069 7.75772 22.3974C7.51535 21.4864 7.44555 20.538 7.55194 19.6013C8.57703 21.5347 10.2225 23.0673 12.2238 23.9526C12.4681 24.0619 12.7443 24.0766 12.9988 23.9939C14.58 23.4835 16.0044 22.5773 17.1367 21.3614C18.269 20.1455 19.0717 18.6603 19.4683 17.0468C19.8649 15.4333 19.8424 13.7452 19.4029 12.1429C18.9633 10.5406 18.1214 9.07725 16.957 7.89198ZM12.7268 21.7923C11.7825 21.3137 10.9495 20.6417 10.2819 19.8201C9.61437 18.9984 9.12721 18.0454 8.85213 17.0231C8.76813 16.6789 8.70314 16.3303 8.65747 15.9789C8.62653 15.7551 8.52643 15.5466 8.37117 15.3826C8.21592 15.2185 8.01326 15.107 7.79155 15.0638C7.72325 15.0503 7.65379 15.0436 7.58417 15.0437C7.39376 15.0436 7.20671 15.0937 7.04186 15.189C6.87702 15.2843 6.74021 15.4214 6.64524 15.5864C5.74637 17.1368 5.29433 18.9058 5.33921 20.6973C4.54864 20.0827 3.88792 19.3172 3.39536 18.4453C2.9028 17.5734 2.58818 16.6124 2.46975 15.618C2.35132 14.6236 2.43143 13.6156 2.70543 12.6524C2.97944 11.6892 3.44189 10.79 4.06598 10.0068C4.53984 9.39133 5.11149 8.85774 5.75815 8.42734C5.78615 8.40927 5.813 8.38948 5.83855 8.36809C5.83855 8.36809 6.15997 8.10215 6.17095 8.09607C7.71437 6.79061 8.81212 5.03621 9.31125 3.07732C10.4916 4.16849 11.2787 5.61885 11.5502 7.2032C11.8218 8.78756 11.5626 10.4172 10.813 11.8392C10.714 12.0289 10.6733 12.2438 10.6962 12.4566C10.7192 12.6694 10.8046 12.8706 10.9417 13.035C11.0789 13.1993 11.2616 13.3193 11.4669 13.3799C11.6722 13.4405 11.8908 13.4389 12.0952 13.3754C13.7547 12.8552 15.2149 11.8391 16.2794 10.4639C16.9192 11.4089 17.3374 12.4861 17.503 13.6152C17.6686 14.7443 17.5773 15.8962 17.2358 16.9851C16.8943 18.074 16.3115 19.0718 15.5308 19.9041C14.7501 20.7365 13.7916 21.3819 12.7268 21.7923L12.7268 21.7923Z" fill="black" fill-opacity="0.1"/>
</svg>
