<svg width="22" height="22" viewBox="0 0 22 22" fill="none" xmlns="http://www.w3.org/2000/svg">
<path d="M7.3925 2.58248C7.56787 2.62859 7.75201 2.62994 7.92803 2.5864C8.10406 2.54287 8.26634 2.45585 8.4 2.33332H13.925L12.5492 7.46832C12.5053 7.629 12.4992 7.79763 12.5311 7.96109C12.5631 8.12455 12.6323 8.27845 12.7333 8.41082C12.8343 8.54192 12.9639 8.64816 13.1122 8.7214C13.2606 8.79463 13.4237 8.83292 13.5892 8.83332H17.5L16.2758 10.1767C16.0838 10.3895 15.984 10.6698 15.9982 10.9561C16.0124 11.2424 16.1395 11.5114 16.3517 11.7042C16.5504 11.8847 16.809 11.9851 17.0775 11.9858C17.2287 11.9855 17.3781 11.9535 17.5162 11.8919C17.6542 11.8303 17.7779 11.7405 17.8792 11.6283L20.75 8.47582C20.8922 8.31838 20.9851 8.12265 21.0171 7.9129C21.0491 7.70316 21.0188 7.48863 20.93 7.29595C20.8411 7.10328 20.6977 6.94093 20.5174 6.82905C20.3371 6.71718 20.1279 6.66071 19.9158 6.66665H14.9975L16.4167 1.53165C16.459 1.37015 16.4634 1.20105 16.4296 1.03756C16.3958 0.874064 16.3246 0.720602 16.2217 0.589151C16.1174 0.453626 15.9826 0.344693 15.8282 0.271261C15.6738 0.197829 15.5042 0.161982 15.3333 0.166651H7.75C7.50542 0.158273 7.26522 0.232951 7.0685 0.378521C6.87178 0.52409 6.73015 0.731976 6.66667 0.968318V1.24998C6.58906 1.5229 6.62161 1.81537 6.75733 2.06453C6.89306 2.3137 7.12112 2.49967 7.3925 2.58248ZM21.4758 19.9808L1.97583 0.480818C1.765 0.327119 1.50578 0.254672 1.24581 0.27679C0.985846 0.298908 0.742592 0.414106 0.560756 0.601212C0.378921 0.788319 0.270719 1.03476 0.256036 1.29526C0.241353 1.55575 0.321175 1.8128 0.480834 2.01915L5.16083 6.66665L3.79583 11.8017C3.75351 11.9632 3.74909 12.1323 3.78292 12.2957C3.81675 12.4592 3.8879 12.6127 3.99083 12.7442C4.09176 12.8753 4.22136 12.9815 4.36971 13.0547C4.51807 13.128 4.68122 13.1663 4.84667 13.1667H9.00667L7.04583 20.4683C6.98233 20.7039 7.00019 20.954 7.09653 21.1781C7.19287 21.4022 7.36205 21.5873 7.57667 21.7033C7.73638 21.7895 7.91518 21.8342 8.09667 21.8333C8.24784 21.833 8.39726 21.801 8.53533 21.7394C8.6734 21.6778 8.79705 21.588 8.89833 21.4758L14.1525 15.6908L19.9808 21.5191C20.0815 21.6207 20.2014 21.7013 20.3334 21.7563C20.4654 21.8113 20.607 21.8396 20.75 21.8396C20.893 21.8396 21.0346 21.8113 21.1666 21.7563C21.2986 21.7013 21.4185 21.6207 21.5192 21.5191C21.6207 21.4184 21.7013 21.2986 21.7563 21.1666C21.8113 21.0346 21.8396 20.893 21.8396 20.75C21.8396 20.607 21.8113 20.4654 21.7563 20.3334C21.7013 20.2013 21.6207 20.0815 21.5192 19.9808H21.4758ZM6.255 11L6.9375 8.46498L9.4725 11H6.255ZM10.2958 16.72L11.3792 12.8633L12.6792 14.1525L10.2958 16.72Z" fill="white"/>
</svg>
