<svg width="14" height="16" viewBox="0 0 14 16" fill="none" xmlns="http://www.w3.org/2000/svg">
<path d="M1.16669 9.16678L10.0217 9.16678L6.17169 13.0051C5.952 13.2248 5.82858 13.5228 5.82858 13.8334C5.82858 14.1441 5.952 14.4421 6.17169 14.6618C6.39137 14.8815 6.68933 15.0049 7.00002 15.0049C7.3107 15.0049 7.60866 14.8815 7.82835 14.6618L13.6617 8.82844C13.7679 8.71749 13.8512 8.58665 13.9067 8.44344C14.0234 8.1594 14.0234 7.84081 13.9067 7.55678C13.8512 7.41357 13.7679 7.28273 13.6617 7.17178L7.82835 1.33844C7.7199 1.22909 7.59086 1.1423 7.44869 1.08307C7.30652 1.02384 7.15403 0.993345 7.00002 0.993345C6.84601 0.993345 6.69352 1.02384 6.55135 1.08307C6.40918 1.1423 6.28014 1.22909 6.17169 1.33844C6.06234 1.4469 5.97554 1.57593 5.91631 1.7181C5.85708 1.86027 5.82659 2.01276 5.82659 2.16678C5.82659 2.32079 5.85708 2.47328 5.91631 2.61545C5.97554 2.75762 6.06234 2.88665 6.17169 2.99511L10.0217 6.83344L1.16669 6.83344C0.857267 6.83344 0.56052 6.95636 0.341727 7.17515C0.122935 7.39394 1.97129e-05 7.69069 1.96859e-05 8.00011C1.96588e-05 8.30953 0.122935 8.60627 0.341727 8.82507C0.56052 9.04386 0.857267 9.16678 1.16669 9.16678Z" fill="white"/>
</svg>
