<svg width="22" height="22" viewBox="0 0 22 22" fill="none" xmlns="http://www.w3.org/2000/svg">
<path d="M19.5692 14.8026H14.6617C14.3744 14.8026 14.0988 14.9167 13.8956 15.1199C13.6925 15.323 13.5783 15.5986 13.5783 15.8859C13.5783 16.1732 13.6925 16.4488 13.8956 16.6519C14.0988 16.8551 14.3744 16.9692 14.6617 16.9692H17.2617C16.0667 18.218 14.5256 19.081 12.8364 19.4473C11.1473 19.8135 9.38715 19.6663 7.78226 19.0246C6.17738 18.3829 4.80103 17.2759 3.83006 15.846C2.85909 14.4161 2.33786 12.7285 2.33334 11.0001C2.33334 10.7128 2.2192 10.4372 2.01604 10.234C1.81287 10.0309 1.53732 9.91675 1.25001 9.91675C0.962687 9.91675 0.687137 10.0309 0.483973 10.234C0.280808 10.4372 0.166672 10.7128 0.166672 11.0001C0.172399 13.1156 0.797411 15.1832 1.96458 16.9476C3.13174 18.712 4.78998 20.0961 6.73464 20.9291C8.67931 21.762 10.8253 22.0073 12.9078 21.6348C14.9903 21.2622 16.9181 20.2881 18.4533 18.8326V20.7501C18.4533 21.0374 18.5675 21.313 18.7706 21.5161C18.9738 21.7193 19.2494 21.8334 19.5367 21.8334C19.824 21.8334 20.0995 21.7193 20.3027 21.5161C20.5059 21.313 20.62 21.0374 20.62 20.7501V15.8751C20.6173 15.5952 20.5064 15.3272 20.3105 15.1273C20.1146 14.9273 19.849 14.811 19.5692 14.8026ZM11 0.166748C8.22276 0.17467 5.55462 1.2489 3.54667 3.16758V1.25008C3.54667 0.962764 3.43254 0.687213 3.22937 0.484049C3.02621 0.280885 2.75066 0.166748 2.46334 0.166748C2.17602 0.166748 1.90047 0.280885 1.69731 0.484049C1.49414 0.687213 1.38001 0.962764 1.38001 1.25008V6.12508C1.38001 6.4124 1.49414 6.68795 1.69731 6.89111C1.90047 7.09428 2.17602 7.20842 2.46334 7.20842H7.33834C7.62566 7.20842 7.90121 7.09428 8.10437 6.89111C8.30754 6.68795 8.42167 6.4124 8.42167 6.12508C8.42167 5.83776 8.30754 5.56221 8.10437 5.35905C7.90121 5.15589 7.62566 5.04175 7.33834 5.04175H4.73834C5.93268 3.79361 7.47277 2.93087 9.16094 2.56428C10.8491 2.19769 12.6083 2.34397 14.2127 2.98435C15.8172 3.62473 17.1936 4.72998 18.1654 6.15824C19.1372 7.58649 19.66 9.27258 19.6667 11.0001C19.6667 11.2874 19.7808 11.5629 19.984 11.7661C20.1871 11.9693 20.4627 12.0834 20.75 12.0834C21.0373 12.0834 21.3129 11.9693 21.516 11.7661C21.7192 11.5629 21.8333 11.2874 21.8333 11.0001C21.8333 9.57743 21.5531 8.1687 21.0087 6.85434C20.4643 5.53998 19.6663 4.34573 18.6603 3.33976C17.6544 2.33379 16.4601 1.53581 15.1457 0.991387C13.8314 0.446961 12.4227 0.166748 11 0.166748Z" fill="white"/>
</svg>
