<svg width="24" height="24" viewBox="0 0 24 24" fill="none" xmlns="http://www.w3.org/2000/svg">
<path d="M23.3283 21.6717L19 17.3783C20.6801 15.2835 21.4938 12.6245 21.2736 9.94819C21.0535 7.27186 19.8163 4.78159 17.8164 2.98943C15.8166 1.19727 13.2061 0.239439 10.5217 0.312893C7.83737 0.386347 5.28317 1.4855 3.38433 3.38434C1.48548 5.28319 0.386331 7.83739 0.312877 10.5218C0.239424 13.2061 1.19725 15.8166 2.98941 17.8165C4.78158 19.8163 7.27185 21.0535 9.94818 21.2736C12.6245 21.4938 15.2835 20.6801 17.3783 19L21.6717 23.2933C21.7801 23.4027 21.9092 23.4895 22.0513 23.5487C22.1935 23.6079 22.346 23.6384 22.5 23.6384C22.654 23.6384 22.8065 23.6079 22.9487 23.5487C23.0908 23.4895 23.2199 23.4027 23.3283 23.2933C23.5386 23.0758 23.6562 22.7851 23.6562 22.4825C23.6562 22.18 23.5386 21.8892 23.3283 21.6717ZM10.8333 19C9.21812 19 7.63917 18.521 6.29617 17.6237C4.95317 16.7263 3.90643 15.4509 3.28831 13.9586C2.6702 12.4663 2.50847 10.8243 2.82358 9.24011C3.13869 7.65593 3.91649 6.20077 5.05862 5.05864C6.20075 3.91651 7.65591 3.13871 9.24009 2.8236C10.8243 2.50848 12.4663 2.67021 13.9586 3.28833C15.4508 3.90644 16.7263 4.95319 17.6237 6.29619C18.521 7.63919 19 9.21813 19 10.8333C19 12.9993 18.1396 15.0765 16.608 16.608C15.0765 18.1396 12.9993 19 10.8333 19Z" fill="#0055FB"/>
</svg>
