<svg width="24" height="24" viewBox="0 0 24 24" fill="none" xmlns="http://www.w3.org/2000/svg">
<path d="M21.2167 12.77C21.0296 12.5571 20.9265 12.2834 20.9265 12C20.9265 11.7166 21.0296 11.4429 21.2167 11.23L22.71 9.55004C22.8746 9.36649 22.9767 9.13553 23.0019 8.8903C23.027 8.64507 22.9739 8.39817 22.85 8.18504L20.5167 4.14837C20.3941 3.93548 20.2074 3.76673 19.9832 3.66617C19.759 3.56562 19.5089 3.53839 19.2683 3.58837L17.075 4.03171C16.7959 4.08937 16.5054 4.04289 16.2582 3.90104C16.011 3.75919 15.8243 3.53177 15.7333 3.26171L15.0217 1.12671C14.9434 0.894983 14.7943 0.693716 14.5954 0.551356C14.3965 0.408996 14.1579 0.332742 13.9133 0.333374H9.24666C8.99225 0.320095 8.74049 0.390454 8.52982 0.533707C8.31916 0.676959 8.16117 0.885229 8.08 1.12671L7.42666 3.26171C7.33566 3.53177 7.14896 3.75919 6.90179 3.90104C6.65463 4.04289 6.36408 4.08937 6.085 4.03171L3.83333 3.58837C3.60531 3.55615 3.37285 3.59213 3.16523 3.69179C2.95762 3.79144 2.78415 3.95031 2.66666 4.14837L0.333329 8.18504C0.206349 8.3958 0.149255 8.64131 0.170209 8.88647C0.191163 9.13163 0.289092 9.36389 0.449996 9.55004L1.93166 11.23C2.1187 11.4429 2.22185 11.7166 2.22185 12C2.22185 12.2834 2.1187 12.5571 1.93166 12.77L0.449996 14.45C0.289092 14.6362 0.191163 14.8685 0.170209 15.1136C0.149255 15.3588 0.206349 15.6043 0.333329 15.815L2.66666 19.8517C2.78928 20.0646 2.97597 20.2334 3.20012 20.3339C3.42428 20.4345 3.67446 20.4617 3.915 20.4117L6.10833 19.9684C6.38742 19.9107 6.67796 19.9572 6.92513 20.099C7.1723 20.2409 7.359 20.4683 7.45 20.7384L8.16166 22.8734C8.24284 23.1149 8.40082 23.3231 8.61149 23.4664C8.82215 23.6096 9.07392 23.68 9.32833 23.6667H13.995C14.2396 23.6673 14.4782 23.5911 14.6771 23.4487C14.8759 23.3064 15.0251 23.1051 15.1033 22.8734L15.815 20.7384C15.906 20.4683 16.0927 20.2409 16.3399 20.099C16.587 19.9572 16.8776 19.9107 17.1567 19.9684L19.35 20.4117C19.5905 20.4617 19.8407 20.4345 20.0649 20.3339C20.289 20.2334 20.4757 20.0646 20.5983 19.8517L22.9317 15.815C23.0555 15.6019 23.1087 15.355 23.0836 15.1098C23.0584 14.8646 22.9562 14.6336 22.7917 14.45L21.2167 12.77ZM19.4783 14.3334L20.4117 15.3834L18.9183 17.9734L17.5417 17.6934C16.7014 17.5216 15.8273 17.6643 15.0854 18.0945C14.3434 18.5246 13.7852 19.2122 13.5167 20.0267L13.0733 21.3334H10.0867L9.66666 20.0034C9.39816 19.1889 8.83994 18.5013 8.09797 18.0711C7.356 17.641 6.48192 17.4983 5.64166 17.67L4.265 17.95L2.74833 15.3717L3.68166 14.3217C4.25561 13.68 4.57292 12.8493 4.57292 11.9884C4.57292 11.1275 4.25561 10.2967 3.68166 9.65504L2.74833 8.60504L4.24166 6.03837L5.61833 6.31837C6.45859 6.49013 7.33266 6.3474 8.07464 5.91727C8.81661 5.48714 9.37483 4.79956 9.64333 3.98504L10.0867 2.66671H13.0733L13.5167 3.99671C13.7852 4.81123 14.3434 5.49881 15.0854 5.92894C15.8273 6.35907 16.7014 6.5018 17.5417 6.33004L18.9183 6.05004L20.4117 8.64004L19.4783 9.69004C18.9108 10.3303 18.5975 11.1562 18.5975 12.0117C18.5975 12.8672 18.9108 13.6932 19.4783 14.3334ZM11.58 7.33337C10.657 7.33337 9.75476 7.60707 8.98734 8.11985C8.21991 8.63263 7.62177 9.36146 7.26856 10.2142C6.91535 11.0669 6.82293 12.0052 7.003 12.9105C7.18306 13.8157 7.62752 14.6472 8.28016 15.2999C8.93281 15.9525 9.76433 16.397 10.6696 16.577C11.5748 16.7571 12.5131 16.6647 13.3659 16.3115C14.2186 15.9583 14.9474 15.3601 15.4602 14.5927C15.973 13.8253 16.2467 12.923 16.2467 12C16.2467 10.7624 15.755 9.57538 14.8798 8.70021C14.0047 7.82504 12.8177 7.33337 11.58 7.33337ZM11.58 14.3334C11.1185 14.3334 10.6674 14.1965 10.2837 13.9401C9.89995 13.6837 9.60088 13.3193 9.42428 12.893C9.24767 12.4666 9.20147 11.9975 9.2915 11.5448C9.38153 11.0922 9.60376 10.6764 9.93008 10.3501C10.2564 10.0238 10.6722 9.80157 11.1248 9.71154C11.5774 9.62151 12.0466 9.66772 12.4729 9.84432C12.8993 10.0209 13.2637 10.32 13.5201 10.7037C13.7765 11.0874 13.9133 11.5386 13.9133 12C13.9133 12.6189 13.6675 13.2124 13.2299 13.65C12.7923 14.0875 12.1988 14.3334 11.58 14.3334Z" fill="white"/>
</svg>
