<svg width="22" height="18" viewBox="0 0 22 18" fill="none" xmlns="http://www.w3.org/2000/svg">
<path d="M11.4659 0.4416C11.2899 0.365487 11.0969 0.337418 10.9066 0.360256C10.7163 0.383095 10.5354 0.456024 10.3825 0.571599L5.20419 4.6666H1.25002C0.962703 4.6666 0.687152 4.78074 0.483988 4.9839C0.280824 5.18707 0.166687 5.46262 0.166687 5.74993V12.2499C0.166687 12.5373 0.280824 12.8128 0.483988 13.016C0.687152 13.2191 0.962703 13.3333 1.25002 13.3333H5.20419L10.3284 17.4283C10.519 17.5812 10.7557 17.6652 11 17.6666C11.1618 17.6693 11.3218 17.6321 11.4659 17.5583C11.6502 17.4705 11.806 17.3323 11.9152 17.1598C12.0245 16.9873 12.0828 16.7875 12.0834 16.5833V1.4166C12.0828 1.21241 12.0245 1.01253 11.9152 0.840027C11.806 0.667519 11.6502 0.529402 11.4659 0.4416ZM9.91669 14.3299L6.25502 11.4049C6.06442 11.252 5.82771 11.168 5.58335 11.1666H2.33335V6.83327H5.58335C5.82771 6.83185 6.06442 6.74786 6.25502 6.59493L9.91669 3.66993V14.3299ZM14.4017 0.430767C14.2594 0.410849 14.1146 0.419149 13.9756 0.45519C13.8365 0.491232 13.7059 0.55431 13.5912 0.640823C13.4766 0.727336 13.38 0.83559 13.3072 0.959404C13.2343 1.08322 13.1866 1.22017 13.1667 1.36243C13.1468 1.5047 13.1551 1.64949 13.1911 1.78855C13.2272 1.92761 13.2902 2.05821 13.3767 2.17289C13.5515 2.4045 13.811 2.55721 14.0984 2.59743C15.6326 2.83386 17.0315 3.61157 18.0422 4.78987C19.0528 5.96817 19.6084 7.46926 19.6084 9.0216C19.6084 10.5739 19.0528 12.075 18.0422 13.2533C17.0315 14.4316 15.6326 15.2093 14.0984 15.4458C13.811 15.4659 13.5435 15.5993 13.3545 15.8167C13.1656 16.0341 13.0707 16.3176 13.0909 16.6049C13.111 16.8923 13.2444 17.1598 13.4618 17.3488C13.6792 17.5377 13.9627 17.6325 14.25 17.6124H14.4017C16.4523 17.3022 18.3236 16.267 19.676 14.6946C21.0283 13.1223 21.772 11.1172 21.772 9.04327C21.772 6.96936 21.0283 4.96421 19.676 3.39189C18.3236 1.81956 16.4523 0.784309 14.4017 0.4741V0.430767ZM13.9034 11.0258C13.616 11.0717 13.3587 11.23 13.1881 11.4656C13.0174 11.7013 12.9474 11.9951 12.9934 12.2824C13.0393 12.5698 13.1975 12.827 13.4332 12.9977C13.6689 13.1684 13.9627 13.2384 14.25 13.1924C14.3676 13.1911 14.4843 13.1729 14.5967 13.1383C15.4406 12.839 16.1711 12.2857 16.6878 11.5543C17.2044 10.823 17.4818 9.94952 17.4818 9.0541C17.4818 8.15868 17.2044 7.28524 16.6878 6.55389C16.1711 5.82254 15.4406 5.26919 14.5967 4.96993C14.3237 4.87799 14.0254 4.89824 13.7674 5.02624C13.5094 5.15423 13.3128 5.37948 13.2209 5.65243C13.1289 5.92538 13.1492 6.22368 13.2772 6.4817C13.4052 6.73972 13.6304 6.93633 13.9034 7.02827C14.3144 7.18419 14.6684 7.46149 14.9181 7.82333C15.1679 8.18518 15.3016 8.61444 15.3016 9.0541C15.3016 9.49376 15.1679 9.92302 14.9181 10.2849C14.6684 10.6467 14.3144 10.924 13.9034 11.0799V11.0258Z" fill="white"/>
</svg>
