<svg width="22" height="18" viewBox="0 0 22 18" fill="none" xmlns="http://www.w3.org/2000/svg">
<path d="M11.4659 0.4416C11.2899 0.365487 11.0969 0.337418 10.9066 0.360256C10.7163 0.383095 10.5354 0.456024 10.3825 0.571599L5.20419 4.6666H1.25002C0.962703 4.6666 0.687152 4.78074 0.483988 4.9839C0.280824 5.18707 0.166687 5.46262 0.166687 5.74993V12.2499C0.166687 12.5373 0.280824 12.8128 0.483988 13.016C0.687152 13.2191 0.962703 13.3333 1.25002 13.3333H5.20419L10.3284 17.4283C10.519 17.5812 10.7557 17.6652 11 17.6666C11.1618 17.6693 11.3218 17.6321 11.4659 17.5583C11.6502 17.4705 11.806 17.3323 11.9152 17.1598C12.0245 16.9873 12.0828 16.7875 12.0834 16.5833V1.4166C12.0828 1.21241 12.0245 1.01253 11.9152 0.840027C11.806 0.667519 11.6502 0.529402 11.4659 0.4416ZM9.91669 14.3299L6.25502 11.4049C6.06442 11.252 5.82771 11.168 5.58335 11.1666H2.33335V6.83327H5.58335C5.82771 6.83185 6.06442 6.74786 6.25502 6.59493L9.91669 3.66993V14.3299ZM19.5692 8.99993L21.5192 7.06077C21.6202 6.95976 21.7003 6.83984 21.755 6.70787C21.8097 6.5759 21.8378 6.43445 21.8378 6.2916C21.8378 6.14875 21.8097 6.0073 21.755 5.87533C21.7003 5.74336 21.6202 5.62344 21.5192 5.52243C21.4182 5.42142 21.2983 5.3413 21.1663 5.28663C21.0343 5.23197 20.8929 5.20383 20.75 5.20383C20.6072 5.20383 20.4657 5.23197 20.3338 5.28663C20.2018 5.3413 20.0819 5.42142 19.9809 5.52243L18.0417 7.47243L16.1025 5.52243C15.8985 5.31844 15.6218 5.20383 15.3334 5.20383C15.0449 5.20383 14.7682 5.31844 14.5642 5.52243C14.3602 5.72643 14.2456 6.00311 14.2456 6.2916C14.2456 6.58009 14.3602 6.85677 14.5642 7.06077L16.5142 8.99993L14.5642 10.9391C14.4626 11.0398 14.3821 11.1596 14.3271 11.2916C14.2721 11.4237 14.2437 11.5653 14.2437 11.7083C14.2437 11.8513 14.2721 11.9929 14.3271 12.1249C14.3821 12.2569 14.4626 12.3767 14.5642 12.4774C14.6649 12.579 14.7847 12.6596 14.9167 12.7146C15.0487 12.7696 15.1903 12.7979 15.3334 12.7979C15.4764 12.7979 15.618 12.7696 15.75 12.7146C15.882 12.6596 16.0018 12.579 16.1025 12.4774L18.0417 10.5274L19.9809 12.4774C20.0816 12.579 20.2014 12.6596 20.3334 12.7146C20.4654 12.7696 20.607 12.7979 20.75 12.7979C20.893 12.7979 21.0346 12.7696 21.1666 12.7146C21.2987 12.6596 21.4185 12.579 21.5192 12.4774C21.6207 12.3767 21.7013 12.2569 21.7563 12.1249C21.8113 11.9929 21.8396 11.8513 21.8396 11.7083C21.8396 11.5653 21.8113 11.4237 21.7563 11.2916C21.7013 11.1596 21.6207 11.0398 21.5192 10.9391L19.5692 8.99993Z" fill="white"/>
</svg>
