<svg width="22" height="22" viewBox="0 0 22 22" fill="none" xmlns="http://www.w3.org/2000/svg">
<path d="M7.43582 6.35255L9.91666 3.86088V14.2501C9.91666 14.5374 10.0308 14.8129 10.234 15.0161C10.4371 15.2192 10.7127 15.3334 11 15.3334C11.2873 15.3334 11.5629 15.2192 11.766 15.0161C11.9692 14.8129 12.0833 14.5374 12.0833 14.2501V3.86088L14.5642 6.35255C14.6649 6.45409 14.7847 6.53468 14.9167 6.58968C15.0487 6.64468 15.1903 6.673 15.3333 6.673C15.4763 6.673 15.6179 6.64468 15.7499 6.58968C15.882 6.53468 16.0018 6.45409 16.1025 6.35255C16.204 6.25184 16.2846 6.13202 16.3396 6.00001C16.3946 5.86799 16.4229 5.7264 16.4229 5.58338C16.4229 5.44037 16.3946 5.29877 16.3396 5.16676C16.2846 5.03475 16.204 4.91493 16.1025 4.81422L11.7692 0.480884C11.6661 0.382256 11.5446 0.304944 11.4117 0.253384C11.1479 0.145031 10.8521 0.145031 10.5883 0.253384C10.4553 0.304944 10.3339 0.382256 10.2308 0.480884L5.89749 4.81422C5.79648 4.91523 5.71636 5.03514 5.66169 5.16711C5.60703 5.29909 5.57889 5.44054 5.57889 5.58338C5.57889 5.72623 5.60703 5.86768 5.66169 5.99965C5.71636 6.13163 5.79648 6.25154 5.89749 6.35255C5.9985 6.45356 6.11841 6.53368 6.25039 6.58835C6.38236 6.64301 6.52381 6.67115 6.66666 6.67115C6.8095 6.67115 6.95095 6.64301 7.08293 6.58835C7.2149 6.53368 7.33482 6.45356 7.43582 6.35255ZM20.75 11.0001C20.4627 11.0001 20.1871 11.1142 19.984 11.3174C19.7808 11.5205 19.6667 11.7961 19.6667 12.0834V18.5834C19.6667 18.8707 19.5525 19.1463 19.3494 19.3494C19.1462 19.5526 18.8706 19.6667 18.5833 19.6667H3.41666C3.12934 19.6667 2.85379 19.5526 2.65062 19.3494C2.44746 19.1463 2.33332 18.8707 2.33332 18.5834V12.0834C2.33332 11.7961 2.21919 11.5205 2.01602 11.3174C1.81286 11.1142 1.53731 11.0001 1.24999 11.0001C0.962672 11.0001 0.687122 11.1142 0.483957 11.3174C0.280793 11.5205 0.166656 11.7961 0.166656 12.0834V18.5834C0.166656 19.4453 0.509066 20.272 1.11856 20.8815C1.72805 21.491 2.5547 21.8334 3.41666 21.8334H18.5833C19.4453 21.8334 20.2719 21.491 20.8814 20.8815C21.4909 20.272 21.8333 19.4453 21.8333 18.5834V12.0834C21.8333 11.7961 21.7192 11.5205 21.516 11.3174C21.3129 11.1142 21.0373 11.0001 20.75 11.0001Z" fill="white"/>
</svg>
